<svg width="963" height="240" viewBox="0 0 963 240" fill="none" xmlns="http://www.w3.org/2000/svg">
<path fill-rule="evenodd" clip-rule="evenodd" d="M137.25 135.807C141.411 126.21 150.873 120 161.333 120H183.75L157.966 179.462C155.192 185.86 148.884 190 141.91 190H124.477C117.478 190 111.153 185.83 108.394 179.399L92.7207 142.859L114.7 160.192C119.209 163.747 125.862 162.07 128.146 156.802L137.25 135.807Z" fill="black"/>
<path d="M47.1026 137.196C48.6293 140.717 53.626 140.706 55.1377 137.179L92.5 50L107.942 85.2999C110.85 91.9468 110.877 99.5008 108.017 106.168L76.6066 179.399C73.8478 185.83 67.5222 190 60.5237 190H41.8399C34.8666 190 28.5587 185.86 25.7845 179.462L0 120H22.4171C32.8771 120 42.3389 126.21 46.5003 135.807L47.1026 137.196Z" fill="#574ADB"/>
<path d="M874.703 183.825V133.034C874.703 125.688 876.482 119.03 880.041 113.061C883.599 107.093 888.649 102.329 895.192 98.771C901.849 95.2127 909.712 93.4336 918.78 93.4336C927.962 93.4336 935.767 95.2127 942.195 98.771C948.738 102.329 953.731 107.093 957.174 113.061C960.618 119.03 962.34 125.688 962.34 133.034V183.825H935.653V133.722C935.653 130.623 934.907 127.811 933.414 125.286C931.922 122.646 929.856 120.58 927.216 119.088C924.691 117.481 921.821 116.677 918.607 116.677C915.279 116.677 912.294 117.481 909.654 119.088C907.129 120.58 905.121 122.646 903.628 125.286C902.136 127.811 901.39 130.623 901.39 133.722V183.825H874.703Z" fill="#0A0C11"/>
<path d="M829.727 183.819V95.4941H856.586V183.819H829.727Z" fill="#0A0C11"/>
<path d="M694.582 185.881C685.055 185.881 676.619 183.987 669.273 180.199C662.041 176.296 656.36 170.729 652.228 163.498C648.095 156.267 646.029 147.716 646.029 137.844V63.293H674.438V138.877C674.438 143.01 675.241 146.74 676.848 150.069C678.455 153.397 680.751 156.037 683.735 157.989C686.835 159.94 690.45 160.916 694.582 160.916C698.715 160.916 702.273 159.94 705.257 157.989C708.241 156.037 710.537 153.397 712.144 150.069C713.866 146.74 714.727 143.01 714.727 138.877V63.293H743.135V138.877C743.135 143.01 743.939 146.74 745.546 150.069C747.153 153.397 749.448 156.037 752.433 157.989C755.532 159.94 759.148 160.916 763.28 160.916C767.412 160.916 770.97 159.94 773.955 157.989C777.054 156.037 779.407 153.397 781.014 150.069C782.621 146.74 783.424 143.01 783.424 138.877V63.293H811.833V137.844C811.833 147.716 809.767 156.267 805.635 163.498C801.502 170.729 795.763 176.296 788.417 180.199C781.186 183.987 772.807 185.881 763.28 185.881C758.574 185.881 754.097 185.307 749.85 184.159C745.718 183.126 741.873 181.519 738.315 179.338C734.871 177.157 731.715 174.517 728.845 171.418C726.09 174.517 722.934 177.157 719.375 179.338C715.817 181.404 711.972 183.011 707.84 184.159C703.708 185.307 699.288 185.881 694.582 185.881Z" fill="#0A0C11"/>
<path d="M573.323 185.891C565.517 185.891 558.63 183.882 552.662 179.865C546.693 175.848 542.044 170.453 538.716 163.681C535.387 156.794 533.723 149.046 533.723 140.437C533.723 131.484 535.674 123.507 539.577 116.505C543.479 109.388 548.989 103.764 556.105 99.6319C563.337 95.4997 571.83 93.4336 581.587 93.4336C591.458 93.4336 599.837 95.4997 606.724 99.6319C613.726 103.649 619.064 109.216 622.737 116.333C626.524 123.334 628.418 131.197 628.418 139.921V183.825H602.248V169.707H601.559C599.952 172.806 597.886 175.618 595.361 178.143C592.836 180.554 589.737 182.448 586.064 183.825C582.505 185.202 578.258 185.891 573.323 185.891ZM581.243 162.82C585.26 162.82 588.761 161.844 591.745 159.893C594.844 157.827 597.197 155.014 598.804 151.456C600.411 147.898 601.215 143.938 601.215 139.576C601.215 135.329 600.411 131.484 598.804 128.041C597.197 124.597 594.844 121.9 591.745 119.948C588.761 117.882 585.26 116.849 581.243 116.849C577.11 116.849 573.495 117.882 570.396 119.948C567.297 121.9 564.944 124.597 563.337 128.041C561.73 131.484 560.926 135.329 560.926 139.576C560.926 143.938 561.73 147.898 563.337 151.456C564.944 155.014 567.297 157.827 570.396 159.893C573.495 161.844 577.11 162.82 581.243 162.82Z" fill="#0A0C11"/>
<path d="M369.571 185.891C360.504 185.891 352.354 183.882 345.123 179.865C337.891 175.848 332.152 170.338 327.905 163.336C323.773 156.334 321.707 148.472 321.707 139.748C321.707 130.91 323.773 123.048 327.905 116.161C332.152 109.159 337.891 103.649 345.123 99.6319C352.354 95.4997 360.504 93.4336 369.571 93.4336C378.639 93.4336 386.731 95.4997 393.848 99.6319C401.079 103.649 406.761 109.159 410.893 116.161C415.14 123.048 417.264 130.91 417.264 139.748C417.264 148.472 415.14 156.334 410.893 163.336C406.761 170.338 401.079 175.848 393.848 179.865C386.617 183.882 378.524 185.891 369.571 185.891ZM369.571 162.648C373.818 162.648 377.491 161.614 380.591 159.548C383.69 157.482 386.1 154.728 387.822 151.284C389.544 147.841 390.404 143.938 390.404 139.576C390.404 135.329 389.544 131.484 387.822 128.041C386.1 124.597 383.69 121.842 380.591 119.776C377.491 117.71 373.818 116.677 369.571 116.677C365.324 116.677 361.594 117.71 358.38 119.776C355.281 121.842 352.871 124.597 351.149 128.041C349.427 131.484 348.566 135.329 348.566 139.576C348.566 143.938 349.427 147.841 351.149 151.284C352.871 154.728 355.281 157.482 358.38 159.548C361.594 161.614 365.324 162.648 369.571 162.648Z" fill="#0A0C11"/>
<path d="M280.372 183.815C272.911 183.815 266.368 182.15 260.744 178.822C255.119 175.493 250.758 171.074 247.658 165.564C244.559 160.055 243.01 153.971 243.01 147.314V63.293H271.935V149.38C271.935 152.135 272.911 154.545 274.862 156.611C276.813 158.677 279.224 159.71 282.093 159.71H313.945L297.158 183.815H280.372Z" fill="#0A0C11"/>
<path d="M489.688 226.188C486.616 226.518 479.199 226.712 474.895 225.173C470.591 223.634 467.08 221.216 464.361 217.921C461.757 214.608 460.129 210.853 459.478 206.657C458.562 200.759 458.978 194.828 460.725 188.866C462.585 182.885 465.3 177.179 468.871 171.746C472.425 166.2 476.472 161.217 481.013 156.795C485.668 152.356 490.323 148.672 494.979 145.742L494.48 164.986C489.425 169.835 485.728 175.578 483.388 182.213C481.032 188.735 480.267 194.662 481.094 199.993C481.411 202.034 482.015 203.683 482.907 204.938C483.816 206.307 485.178 206.851 486.993 206.569C489.488 206.182 491.114 205.059 491.871 203.199C492.759 201.435 493.21 199.1 493.224 196.194L493.1 95.2004L519.279 95.2004L519.244 191.557C519.209 198.067 518.116 203.754 515.967 208.618C513.835 213.595 509.226 217.807 505.268 220.745C501.31 223.682 493.624 225.766 489.688 226.188ZM465.872 185.269C456.771 185.752 449.219 183.497 443.218 178.504C437.216 173.511 433.564 166.818 432.262 158.424C432.033 156.95 431.835 155.296 431.667 153.464C431.594 151.5 431.566 149.821 431.582 148.424L431.68 95.1998L458.576 95.2008L458.675 139.679C459.156 148.541 457.203 152.951 465.812 159.766C478.366 166.581 481.594 159.766 484.823 158.69L465.872 185.269Z" fill="#0A0C11"/>
<path d="M864.665 70.7386L863.335 71.0967C853.546 73.7324 845.9 81.3787 843.264 91.1677L842.906 92.4977L842.548 91.1677C839.912 81.3787 832.266 73.7324 822.477 71.0967L821.147 70.7386L822.477 70.3805C832.266 67.7448 839.912 60.0985 842.548 50.3095L842.906 48.9795L843.264 50.3095C845.9 60.0985 853.546 67.7448 863.335 70.3805L864.665 70.7386Z" fill="#574ADB"/>
</svg>
